<?xml version="1.0" encoding="UTF-8" standalone="no"?>
<svg
   xmlns:dc="http://purl.org/dc/elements/1.1/"
   xmlns:cc="http://creativecommons.org/ns#"
   xmlns:rdf="http://www.w3.org/1999/02/22-rdf-syntax-ns#"
   xmlns:svg="http://www.w3.org/2000/svg"
   xmlns="http://www.w3.org/2000/svg"
   viewBox="0 0 283.4646 70.866096"
   id="svg2"
   height="70.866096"
   width="283.4646"
   version="1.1">
  <metadata
     id="metadata14">
    <rdf:RDF>
      <cc:Work
         rdf:about="">
        <dc:format>image/svg+xml</dc:format>
        <dc:type
           rdf:resource="http://purl.org/dc/dcmitype/StillImage" />
      </cc:Work>
    </rdf:RDF>
  </metadata>
  <defs
     id="defs12" />
  <g
     id="g4">
    <path
       id="path6"
       style="fill:#56be08;fill-rule:evenodd"
       d="m 53.099,33.6232 -0.0078,0.0047 -11.9423,-8.03 0,32.7427 -4.4071,0 0,-35.5971 0,-4.4203 0,-0.7913 0.5425,0 15.8069,10.6283 0.0078,-0.0047 0.0073,0.0047 15.8071,-10.6283 0.5423,0 0,0.7913 0,4.4203 0,10.7516 -4.4071,0 0,-7.8972 -11.9423,8.03 -0.0073,-0.0047 z m 28.584,-17.5517 21.246,0 0,4.3732 -21.246,0 0,-4.3732 z M 70.8648,41.2384 c 5.2344,-3.3966 8.309,-4.3925 14.9252,-4.4497 2.7589,-0.0241 5.9392,0.2912 8.3611,1.6173 2.129,1.1667 3.17,2.9982 3.249,5.2873 l 7e-4,0.0534 -7e-4,0.0125 c -0.0777,2.2896 -1.12,4.1215 -3.249,5.2876 -2.4219,1.3266 -5.6022,1.6416 -8.3611,1.6177 C 79.1738,50.6072 76.0992,49.6112 70.8648,46.2147 65.63,49.6112 62.5554,50.6072 55.939,50.6645 53.1801,50.6884 50,50.3734 47.5785,49.0468 45.4491,47.8807 44.4068,46.0488 44.329,43.7592 l 0,-0.0659 c 0.0791,-2.2891 1.1201,-4.1206 3.2495,-5.2873 2.4215,-1.3261 5.6016,-1.6414 8.3605,-1.6173 6.6164,0.0572 9.691,1.0531 14.9258,4.4497 z m -3.7906,2.4883 c -1.1603,-0.7345 -2.3612,-1.4524 -3.6328,-1.9678 -2.262,-0.9178 -4.7903,-1.126 -7.2248,-1.182 -1.6807,-0.0387 -4.2463,0.0513 -5.6367,1.0314 -1.9143,1.3497 -1.9143,2.8869 0,4.2362 1.393,0.9822 3.9671,1.0698 5.652,1.0311 2.4293,-0.056 4.9524,-0.2652 7.2095,-1.1812 1.2735,-0.5166 2.4725,-1.2328 3.6328,-1.9677 z m 7.5808,-2e-4 c 1.1601,0.7351 2.3593,1.4515 3.6326,1.9679 2.2622,0.9179 4.7903,1.1256 7.2249,1.1816 1.6806,0.0385 4.2464,-0.0514 5.6368,-1.0315 1.9143,-1.3495 1.9143,-2.8863 0,-4.2362 -1.3935,-0.9819 -3.9676,-1.0697 -5.652,-1.0312 -2.4297,0.0562 -4.9524,0.2661 -7.2097,1.1818 -1.2733,0.5163 -2.4725,1.2327 -3.6326,1.9676 z m -1.2688,14.6141 0,0.0013 14.5722,0 c 5.582,0 9.8759,-1.2386 12.8705,-3.7105 2.9945,-2.4721 4.4947,-6.6108 4.4947,-11.2403 0,-4.9931 -1.5684,-8.0634 -4.699,-10.3764 -4.1389,-3.0577 -8.6364,-3.7192 -13.3432,-3.857 l 0,-0.0325 -2.0614,0 c -0.9592,-0.0053 -1.9268,0 -2.8998,0 l -3.6811,0 -0.858,0 0,-16.9465 0.2469,0 24.901,0 0,-4.4213 -24.901,0 -1.367,0 0,4e-4 -3.2748,0 -5.9123,0 -14.395,9.4161 -14.3554,-9.4161 -0.8612,0 -9.4459,0 0,50.5828 3.5652,0 0.8611,0 0,-46.1628 3.8903,0 16.3853,10.6285 -0.0193,-0.0124 0.0193,0.0124 16.3641,-10.6285 3.8724,0 0,21.3173 4.876,0 7.1773,0.0543 c 7.7027,0.2934 15.0219,1.6498 15.1747,9.8417 l -0.002,0.3931 c -0.2101,7.9945 -7.3087,9.7915 -14.865,10.1183 l -7.7097,0.0663 -4.6512,0 0,4.3718 0.0314,0 z" />
    <path
       id="path8"
       style="fill:#41494d;fill-rule:evenodd"
       d="m 128.0284,29.2585 0,-21.5011 -3.8601,0 -5.2128,11.6262 -5.2408,-11.6262 -3.8602,0 0,21.5011 3.9166,0 0,-12.5324 3.8602,8.1537 2.6486,0 3.832,-8.1537 0,12.5324 3.9165,0 z m 17.8922,0 0,-3.7445 -9.2983,0 0,-5.2245 7.9175,0 0,-3.7445 -7.9175,0 0,-5.0431 9.2983,0 0,-3.7445 -13.2149,0 0,21.5011 13.2149,0 z m 18.371,-6.704 c 0,-3.9259 -2.4796,-6.7041 -6.5087,-6.7041 l -4.1137,0 0,-4.3485 9.3544,0 0,-3.7445 -13.271,0 0,21.5011 8.0303,0 c 4.0573,0 6.5087,-2.7782 6.5087,-6.704 z m -3.9165,0 c 0,1.7816 -1.0425,2.9595 -2.7894,2.9595 l -3.9165,0 0,-5.9191 3.9165,0 c 1.7469,0 2.7894,1.2082 2.7894,2.9596 z m 21.0198,6.704 0,-3.7445 -9.2983,0 0,-5.2245 7.9175,0 0,-3.7445 -7.9175,0 0,-5.0431 9.2983,0 0,-3.7445 -13.2149,0 0,21.5011 13.2149,0 z m 18.4557,0 0,-21.5011 -12.4822,0 0,9.754 c 0,6.7342 -1.437,8.0026 -3.4377,8.0026 l -0.5635,0 0,3.7445 1.5498,0 c 4.1701,0 6.227,-2.4762 6.227,-11.5056 l 0,-6.251 4.79,0 0,17.7566 3.9166,0 z m 19.1038,-6.704 c 0,-3.9259 -2.5925,-6.7041 -6.5088,-6.7041 l -3.973,0 0,-8.093 -3.9166,0 0,21.5011 7.8896,0 c 3.8881,0 6.5088,-2.7782 6.5088,-6.704 z m -3.9166,0 c 0,1.7816 -1.127,2.9595 -2.9022,2.9595 l -3.663,0 0,-5.9191 3.663,0 c 1.7752,0 2.9022,1.2082 2.9022,2.9596 z m -90.6442,29.0787 c 0,-3.9261 -2.4803,-6.7041 -6.5088,-6.7041 l -4.1137,0 0,-4.3485 9.3545,0 0,-3.7445 -13.2711,0 0,21.5011 8.0303,0 c 4.0574,0 6.5088,-2.7781 6.5088,-6.704 z m -3.9166,0 c 0,1.7816 -1.0431,2.9593 -2.7893,2.9593 l -3.9166,0 0,-5.9188 3.9166,0 c 1.7469,0 2.7893,1.2081 2.7893,2.9595 z m 21.7242,-14.7971 -4.0574,0 -3.8038,10.3579 -4.1983,-10.3579 -4.0855,0 6.4241,14.9177 -0.5917,1.4799 c -0.3522,0.8813 -1.0151,1.3588 -2.085,1.3588 l -1.578,0 0,3.7447 2.395,0 c 2.3386,0 3.7135,-1.6938 4.4801,-3.6239 l 7.1005,-17.8772 z m 18.6248,26.2725 0,-8.5161 -2.3106,0 0,-17.7564 -12.0877,0 0,5.4959 c 0,4.952 -0.7325,9.5125 -2.395,12.2605 l -1.8877,0 0,8.5161 3.7756,0 0,-4.7714 11.1296,0 0,4.7714 3.7758,0 z m -6.227,-8.5161 -6.1988,0 c 1.3806,-2.9898 1.7751,-6.6434 1.7751,-10.9015 l 0,-3.1104 4.4237,0 0,14.0119 z m 23.2737,-17.7564 -4.0574,0 -3.8038,10.3579 -4.1983,-10.3579 -4.0855,0 6.4241,14.9177 -0.5917,1.4799 c -0.3522,0.8813 -1.0151,1.3588 -2.085,1.3588 l -1.578,0 0,3.7447 2.395,0 c 2.3386,0 3.7135,-1.6938 4.4801,-3.6239 l 7.1005,-17.8772 z m 27.9229,26.2725 0,-8.5161 -2.3104,0 0,-17.7564 -3.9166,0 0,17.7564 -5.6917,0 0,-17.7564 -3.9163,0 0,17.7564 -5.7199,0 0,-17.7564 -3.9166,0 0,21.5011 21.6959,0 0,4.7714 3.7756,0 z m 16.3144,-4.7714 0,-3.7447 -9.2983,0 0,-5.2242 7.9175,0 0,-3.7446 -7.9175,0 0,-5.0431 9.2983,0 0,-3.7445 -13.2149,0 0,21.5011 13.2149,0 z m 16.5396,-17.7566 0,-3.7445 -12.623,0 0,21.5011 3.9166,0 0,-17.7566 8.7064,0 z m 16.3988,5.4962 c 0,-3.4733 -0.5922,-5.5266 -2.0005,-7.0665 -1.4085,-1.5398 -3.2685,-2.3555 -5.4099,-2.3555 -2.1695,0 -4.0287,0.8164 -5.4379,2.3555 -1.5487,1.6915 -1.9726,3.4129 -1.9726,7.7007 l 0,1.7816 c 0,2.3246 0.0251,5.5305 1.9726,7.6702 1.4049,1.5437 3.2684,2.3555 5.4379,2.3555 2.1696,0 3.9968,-0.7906 5.4099,-2.3555 1.9675,-2.1787 2.0005,-4.9822 2.0005,-7.7911 l 0,-2.2949 z m -3.9164,1.1172 c 0,4.3785 -0.1692,5.4363 -0.9862,6.4323 -0.6192,0.7546 -1.4934,1.1472 -2.5078,1.1472 -1.0143,0 -1.86,-0.4226 -2.5358,-1.1472 -0.9296,-0.9963 -0.9581,-3.0199 -0.9581,-5.2546 l 0,-1.087 c 0,-2.6576 0.0644,-4.6739 0.9581,-5.738 0.6274,-0.7467 1.5215,-1.1474 2.5358,-1.1474 1.0144,0 1.8833,0.3978 2.5078,1.1474 0.7836,0.9408 0.9862,2.1138 0.9862,5.6473 z" />
  </g>
</svg>
